# xmcd
#
# Track frame offsets:
#	150
#	16212
#	31612
#	61932
#	76715
#	103580
#	122300
#	136885
#	152825
#	163015
#	185070
#	199302
#
# Disc length: 2942 seconds
#
# Revision: 0
# Processed by: cddbd v1.4PL0 Copyright (c) Steve Scherf et al.
# Submitted via: dBpowerAMP V4.0
#
DISCID=8d0b7c0c
DTITLE=Various Artist - Gospel Brunch
DYEAR=1900
DGENRE=Gospel
TTITLE0=Up above my head - The Holmes Brothers
TTITLE1=Praise his name - The Persuasions
TTITLE2=Careful hands - Irma Thomas
TTITLE3=Today - The Birmingham Sunlights
TTITLE4=None but the righteous - The Holmes Brothers
TTITLE5=I've been born again - The Dixie Hummingsbirds
TTITLE6=Walk in the light - The Holmes Brothers
TTITLE7=Gospel train - The Birningham Sunlights
TTITLE8=Dry bones - The Persuasions
TTITLE9=Never alone - Johnny Adams and Aaron Neville
TTITLE10=Walk around heaven all day - Irma Thomas
TTITLE11=I surrender all - The Holmes Brothers
EXTD=
EXTT0=
EXTT1=
EXTT2=
EXTT3=
EXTT4=
EXTT5=
EXTT6=
EXTT7=
EXTT8=
EXTT9=
EXTT10=
EXTT11=
PLAYORDER=
